<?xml version="1.0" encoding="UTF-8" standalone="no"?>
<svg
   xmlns:dc="http://purl.org/dc/elements/1.1/"
   xmlns:cc="http://creativecommons.org/ns#"
   xmlns:rdf="http://www.w3.org/1999/02/22-rdf-syntax-ns#"
   xmlns:svg="http://www.w3.org/2000/svg"
   xmlns="http://www.w3.org/2000/svg"
   xmlns:sodipodi="http://sodipodi.sourceforge.net/DTD/sodipodi-0.dtd"
   xmlns:inkscape="http://www.inkscape.org/namespaces/inkscape"
   id="svg3792"
   viewBox="0 0 48 48"
   version="1.1"
   sodipodi:docname="DeleteTable.svg"
   inkscape:version="0.92.1 r15371">
  <defs
     id="defs9" />
  <sodipodi:namedview
     pagecolor="#ffffff"
     bordercolor="#666666"
     borderopacity="1"
     objecttolerance="10"
     gridtolerance="10"
     guidetolerance="10"
     inkscape:pageopacity="0"
     inkscape:pageshadow="2"
     inkscape:window-width="1280"
     inkscape:window-height="737"
     id="namedview7"
     showgrid="false"
     inkscape:zoom="9.8601759"
     inkscape:cx="16.969182"
     inkscape:cy="25.656914"
     inkscape:window-x="-8"
     inkscape:window-y="-8"
     inkscape:window-maximized="1"
     inkscape:current-layer="svg3792" />
  <metadata
     id="metadata4">
    <rdf:RDF>
      <cc:Work>
        <dc:format>image/svg+xml</dc:format>
        <dc:type
           rdf:resource="http://purl.org/dc/dcmitype/StillImage" />
        <cc:license
           rdf:resource="http://creativecommons.org/licenses/publicdomain/" />
        <dc:publisher>
          <cc:Agent
             rdf:about="http://openclipart.org/">
            <dc:title>Openclipart</dc:title>
          </cc:Agent>
        </dc:publisher>
        <dc:title />
        <dc:date>2013-07-15T19:10:44</dc:date>
        <dc:description>An export icon</dc:description>
        <dc:source>https://openclipart.org/detail/180891/export-icon-2-by-dibargatin-180891</dc:source>
        <dc:creator>
          <cc:Agent>
            <dc:title>dibargatin</dc:title>
          </cc:Agent>
        </dc:creator>
        <dc:subject>
          <rdf:Bag>
            <rdf:li>android</rdf:li>
            <rdf:li>export</rdf:li>
            <rdf:li>icon</rdf:li>
          </rdf:Bag>
        </dc:subject>
      </cc:Work>
      <cc:License
         rdf:about="http://creativecommons.org/licenses/publicdomain/">
        <cc:permits
           rdf:resource="http://creativecommons.org/ns#Reproduction" />
        <cc:permits
           rdf:resource="http://creativecommons.org/ns#Distribution" />
        <cc:permits
           rdf:resource="http://creativecommons.org/ns#DerivativeWorks" />
      </cc:License>
    </rdf:RDF>
  </metadata>
  <path
     style="opacity:1;vector-effect:none;fill:#000000;fill-opacity:0.98039216;fill-rule:evenodd;stroke:none;stroke-width:0.93631816;stroke-linecap:butt;stroke-linejoin:miter;stroke-miterlimit:4;stroke-dasharray:none;stroke-dashoffset:0;stroke-opacity:1;marker:none"
     d="M 7.5058594 3.1210938 C 6.2388014 3.1210938 5.2207031 4.1488515 5.2207031 5.4257812 L 5.2207031 42.572266 C 5.2207031 43.849196 6.2388014 44.878906 7.5058594 44.878906 L 40.492188 44.878906 C 41.759245 44.878906 42.779297 43.849196 42.779297 42.572266 L 42.779297 5.4257812 C 42.779297 4.1488515 41.759245 3.1210938 40.492188 3.1210938 L 7.5058594 3.1210938 z M 7.1503906 4.6601562 L 16.759766 4.6601562 C 16.977879 4.6601562 17.152344 4.834621 17.152344 5.0527344 L 17.152344 10.914062 C 17.152344 11.132176 16.977879 11.308594 16.759766 11.308594 L 7.1503906 11.308594 C 6.9322766 11.308594 6.7558594 11.132176 6.7558594 10.914062 L 6.7558594 5.0527344 C 6.7558594 4.834621 6.9322766 4.6601562 7.1503906 4.6601562 z M 19.150391 4.6601562 L 28.759766 4.6601562 C 28.977879 4.6601562 29.152344 4.834621 29.152344 5.0527344 L 29.152344 10.914062 C 29.152344 11.132176 28.977879 11.308594 28.759766 11.308594 L 26.572266 11.308594 C 26.569512 11.804209 26.613215 12.223227 26.679688 12.601562 L 28.669922 12.601562 C 28.888036 12.601562 29.066406 12.776028 29.066406 12.994141 L 29.066406 15.015625 C 29.556907 15.080422 30.097955 15.071726 30.666016 15.027344 L 30.666016 12.994141 C 30.666016 12.776028 30.844386 12.601562 31.0625 12.601562 L 40.669922 12.601562 C 40.888036 12.601562 41.066406 12.776028 41.066406 12.994141 L 41.066406 18.855469 C 41.066406 19.073583 40.888036 19.250001 40.669922 19.25 L 38.855469 19.25 C 38.726 19.693198 38.520341 20.126768 38.251953 20.541016 L 40.669922 20.541016 C 40.888036 20.541016 41.066406 20.71548 41.066406 20.933594 L 41.066406 26.798828 C 41.066406 27.016941 40.888036 27.191406 40.669922 27.191406 L 32.873047 27.191406 C 33.129523 27.610969 33.413692 28.042449 33.695312 28.480469 L 40.669922 28.480469 C 40.888036 28.480469 41.066406 28.656888 41.066406 28.875 L 41.066406 34.738281 C 41.066406 34.956394 40.888036 35.132812 40.669922 35.132812 L 32.419922 35.132812 C 31.396844 35.42276 30.189307 35.301642 29.037109 34.884766 C 28.978629 35.029381 28.835657 35.132812 28.669922 35.132812 L 19.0625 35.132812 C 18.844386 35.132812 18.666016 34.956394 18.666016 34.738281 L 18.666016 33.832031 C 18.142941 34.23986 17.609252 34.580092 17.058594 34.779297 C 17.037069 34.976984 16.873397 35.132812 16.669922 35.132812 L 7.0625 35.132812 C 6.844386 35.132812 6.6660156 34.956394 6.6660156 34.738281 L 6.6660156 28.875 C 6.6660156 28.656888 6.8443871 28.480469 7.0625 28.480469 L 11.673828 28.480469 C 11.740927 28.037266 11.842437 27.605393 11.970703 27.191406 L 7.0625 27.191406 C 6.844386 27.191406 6.6660156 27.016941 6.6660156 26.798828 L 6.6660156 20.933594 C 6.6660156 20.820418 6.7167928 20.721786 6.7929688 20.650391 C 6.3810925 20.08891 6.0883253 19.452546 6.0097656 18.697266 C 5.9069073 17.432239 6.1728086 16.52694 6.6660156 15.865234 L 6.6660156 12.994141 C 6.6660156 12.776028 6.8443871 12.601562 7.0625 12.601562 L 16.669922 12.601562 C 16.888035 12.601562 17.066406 12.776028 17.066406 12.994141 L 17.066406 14.03125 C 17.86911 12.49731 17.968788 10.206637 18.757812 8.5488281 L 18.757812 5.0527344 C 18.757812 4.834621 18.932278 4.6601562 19.150391 4.6601562 z M 31.150391 4.6601562 L 40.759766 4.6601562 C 40.977879 4.6601562 41.152344 4.834621 41.152344 5.0527344 L 41.152344 10.914062 C 41.152344 11.132176 40.977879 11.308594 40.759766 11.308594 L 31.150391 11.308594 C 30.932278 11.308594 30.757813 11.132176 30.757812 10.914062 L 30.757812 5.0527344 C 30.757812 4.834621 30.932278 4.6601562 31.150391 4.6601562 z M 7.0625 36.423828 L 16.669922 36.423828 C 16.888035 36.423828 17.066406 36.598293 17.066406 36.816406 L 17.066406 42.679688 C 17.066406 42.897801 16.888036 43.070313 16.669922 43.070312 L 7.0625 43.070312 C 6.844386 43.070312 6.6660156 42.897801 6.6660156 42.679688 L 6.6660156 36.816406 C 6.6660156 36.598293 6.8443871 36.423828 7.0625 36.423828 z M 19.0625 36.423828 L 28.669922 36.423828 C 28.888036 36.423828 29.066406 36.598293 29.066406 36.816406 L 29.066406 42.679688 C 29.066406 42.897801 28.888035 43.070313 28.669922 43.070312 L 19.0625 43.070312 C 18.844386 43.070312 18.666016 42.897801 18.666016 42.679688 L 18.666016 36.816406 C 18.666016 36.598293 18.844386 36.423828 19.0625 36.423828 z M 31.0625 36.423828 L 40.669922 36.423828 C 40.888036 36.423828 41.066406 36.598293 41.066406 36.816406 L 41.066406 42.679688 C 41.066406 42.897801 40.888036 43.070313 40.669922 43.070312 L 31.0625 43.070312 C 30.844386 43.070312 30.666016 42.897801 30.666016 42.679688 L 30.666016 36.816406 C 30.666016 36.598293 30.844386 36.423828 31.0625 36.423828 z "
     id="rect4658" />
  <path
     sodipodi:nodetypes="ssssssscsss"
     inkscape:connector-curvature="0"
     id="path4655"
     d="m 21.995921,8.4839272 c 3.156513,-0.1181519 2.276941,6.3603918 4.91037,8.1046918 2.828742,1.873669 9.100325,-1.789991 10.073681,1.460393 0.882058,2.945504 -5.986528,3.186779 -6.898884,6.123041 -0.901942,2.902749 4.539717,6.925694 2.188692,8.852383 -2.614414,2.142537 -5.793968,-4.305093 -9.174114,-4.320446 -3.199643,-0.01453 -6.153226,5.919734 -8.720995,4.010681 -2.375077,-1.765792 1.22897,-8.793222 1.22897,-8.793222 0,0 -8.5343981,-3.214261 -7.5785637,-6.373646 0.9648611,-3.18922 7.1955507,0.784578 9.9336587,-1.114066 2.44234,-1.693554 1.067204,-7.83864 4.037185,-7.9498098 z"
     inkscape:transform-center-y="0.080079024"
     inkscape:transform-center-x="-2.3308554"
     style="opacity:1;vector-effect:none;fill:#ff0000;fill-opacity:0.9372549;stroke:none;stroke-width:0.56095845;stroke-linecap:butt;stroke-linejoin:miter;stroke-miterlimit:4;stroke-dasharray:none;stroke-dashoffset:0;stroke-opacity:1;marker:none" />
</svg>
