<?xml version="1.0" encoding="UTF-8" standalone="no"?>
<svg
   xmlns:dc="http://purl.org/dc/elements/1.1/"
   xmlns:cc="http://creativecommons.org/ns#"
   xmlns:rdf="http://www.w3.org/1999/02/22-rdf-syntax-ns#"
   xmlns:svg="http://www.w3.org/2000/svg"
   xmlns="http://www.w3.org/2000/svg"
   xmlns:sodipodi="http://sodipodi.sourceforge.net/DTD/sodipodi-0.dtd"
   xmlns:inkscape="http://www.inkscape.org/namespaces/inkscape"
   id="svg3792"
   viewBox="0 0 48 48"
   version="1.1"
   sodipodi:docname="ExportTable.svg"
   inkscape:version="0.92.1 r15371">
  <defs
     id="defs9" />
  <sodipodi:namedview
     pagecolor="#ffffff"
     bordercolor="#666666"
     borderopacity="1"
     objecttolerance="10"
     gridtolerance="10"
     guidetolerance="10"
     inkscape:pageopacity="0"
     inkscape:pageshadow="2"
     inkscape:window-width="1600"
     inkscape:window-height="837"
     id="namedview7"
     showgrid="false"
     inkscape:zoom="4.9166667"
     inkscape:cx="-17.818209"
     inkscape:cy="24"
     inkscape:window-x="-8"
     inkscape:window-y="-8"
     inkscape:window-maximized="1"
     inkscape:current-layer="svg3792" />
  <path
     style="opacity:1;vector-effect:none;fill:#000000;fill-opacity:0.98039216;fill-rule:evenodd;stroke:none;stroke-width:0.93631816;stroke-linecap:butt;stroke-linejoin:miter;stroke-miterlimit:4;stroke-dasharray:none;stroke-dashoffset:0;stroke-opacity:1;marker:none"
     d="M 7.5058594 3.1230469 C 6.2387994 3.1230469 5.21875 4.1508047 5.21875 5.4277344 L 5.21875 42.572266 C 5.21875 43.849196 6.2387994 44.876953 7.5058594 44.876953 L 40.494141 44.876953 C 41.761199 44.876953 42.78125 43.849196 42.78125 42.572266 L 42.78125 23.603516 C 42.244272 24.105577 41.664503 24.574153 41.064453 25.027344 L 41.064453 26.796875 C 41.064453 27.014989 40.889988 27.191406 40.671875 27.191406 L 37.943359 27.191406 C 37.300915 27.61598 36.666005 28.046414 36.041016 28.482422 L 40.671875 28.482422 C 40.889988 28.482422 41.064453 28.656886 41.064453 28.875 L 41.064453 34.736328 C 41.064453 34.954441 40.889988 35.130859 40.671875 35.130859 L 31.060547 35.130859 C 30.842434 35.130859 30.667969 34.954441 30.667969 34.736328 L 30.667969 31.419922 C 30.039823 31.250685 29.487258 30.829401 29.064453 30.263672 L 29.064453 34.736328 C 29.064453 34.954441 28.889988 35.130859 28.671875 35.130859 L 19.060547 35.130859 C 18.842434 35.130859 18.667969 34.954441 18.667969 34.736328 L 18.667969 28.875 C 18.667969 28.656886 18.842434 28.482422 19.060547 28.482422 L 28.296875 28.482422 C 28.215865 28.061094 28.195663 27.626096 28.244141 27.191406 L 21.482422 27.191406 C 19.927674 27.697895 18.435377 28.400054 17.064453 29.28125 L 17.064453 34.736328 C 17.064453 34.954441 16.889988 35.130859 16.671875 35.130859 L 7.0605469 35.130859 C 6.8424369 35.130859 6.6679687 34.954441 6.6679688 34.736328 L 6.6679688 28.875 C 6.6679688 28.656886 6.8424369 28.482422 7.0605469 28.482422 L 9.7714844 28.482422 C 9.8925976 28.043503 10.03223 27.613181 10.191406 27.191406 L 7.0605469 27.191406 C 6.8424369 27.191406 6.6679687 27.014989 6.6679688 26.796875 L 6.6679688 20.935547 C 6.6679688 20.717433 6.8424369 20.541016 7.0605469 20.541016 L 14.744141 20.541016 C 15.214427 20.091664 15.708236 19.663751 16.216797 19.25 L 7.0605469 19.25 C 6.8424369 19.25 6.6679687 19.073582 6.6679688 18.855469 L 6.6679688 12.994141 C 6.6679688 12.776028 6.8424369 12.601561 7.0605469 12.601562 L 16.671875 12.601562 C 16.889988 12.601562 17.064453 12.776028 17.064453 12.994141 L 17.064453 18.580078 C 17.584135 18.190985 18.12224 17.824739 18.667969 17.470703 L 18.667969 12.994141 C 18.667969 12.776028 18.842434 12.601561 19.060547 12.601562 L 28.238281 12.601562 C 28.360083 12.206779 28.430627 11.764758 28.494141 11.308594 L 19.150391 11.308594 C 18.932278 11.308594 18.757812 11.13413 18.757812 10.916016 L 18.757812 5.0546875 C 18.757812 4.8365742 18.932278 4.6601564 19.150391 4.6601562 L 28.759766 4.6601562 C 28.977879 4.6601562 29.154297 4.8365742 29.154297 5.0546875 L 29.154297 9.0800781 C 29.471259 8.6369732 29.959551 8.3243763 30.757812 8.2539062 L 30.757812 5.0546875 C 30.757812 4.8365742 30.932278 4.6601564 31.150391 4.6601562 L 40.759766 4.6601562 C 40.977879 4.6601562 41.154297 4.8365742 41.154297 5.0546875 L 41.154297 10.916016 C 41.154297 11.13413 40.977878 11.308594 40.759766 11.308594 L 36.025391 11.308594 C 36.56126 11.755817 37.142759 12.184012 37.751953 12.601562 L 40.671875 12.601562 C 40.889988 12.601562 41.064453 12.776028 41.064453 12.994141 L 41.064453 14.841797 C 41.677313 15.285773 42.254446 15.751964 42.78125 16.248047 L 42.78125 5.4277344 C 42.78125 4.1508047 41.7612 3.1230469 40.494141 3.1230469 L 7.5058594 3.1230469 z M 7.1503906 4.6601562 L 16.759766 4.6601562 C 16.977879 4.6601562 17.154297 4.8365742 17.154297 5.0546875 L 17.154297 10.916016 C 17.154297 11.13413 16.977879 11.308594 16.759766 11.308594 L 7.1503906 11.308594 C 6.9322806 11.308594 6.7578125 11.13413 6.7578125 10.916016 L 6.7578125 5.0546875 C 6.7578125 4.8365742 6.9322806 4.6601564 7.1503906 4.6601562 z M 7.0605469 36.421875 L 16.671875 36.421875 C 16.889988 36.421875 17.064453 36.598293 17.064453 36.816406 L 17.064453 42.677734 C 17.064453 42.895847 16.889988 43.072266 16.671875 43.072266 L 7.0605469 43.072266 C 6.8424369 43.072266 6.6679687 42.895847 6.6679688 42.677734 L 6.6679688 36.816406 C 6.6679688 36.598293 6.8424369 36.421875 7.0605469 36.421875 z M 19.060547 36.421875 L 28.671875 36.421875 C 28.889988 36.421875 29.064453 36.598293 29.064453 36.816406 L 29.064453 42.677734 C 29.064453 42.895847 28.889988 43.072266 28.671875 43.072266 L 19.060547 43.072266 C 18.842434 43.072266 18.667969 42.895847 18.667969 42.677734 L 18.667969 36.816406 C 18.667969 36.598293 18.842434 36.421875 19.060547 36.421875 z M 31.060547 36.421875 L 40.671875 36.421875 C 40.889988 36.421875 41.064453 36.598293 41.064453 36.816406 L 41.064453 42.677734 C 41.064453 42.895847 40.889988 43.072266 40.671875 43.072266 L 31.060547 43.072266 C 30.842434 43.072266 30.667969 42.895847 30.667969 42.677734 L 30.667969 36.816406 C 30.667969 36.598293 30.842434 36.421875 31.060547 36.421875 z "
     id="rect4658" />
  <path
     inkscape:connector-curvature="0"
     style="fill:#ff0000;fill-opacity:0.9372549"
     d="m 30.995535,10.2342 c -0.53956,-0.0053 -0.57895,0.71121 -0.57895,2.1871 0,2.3279 -0.0336,2.3747 -2.0906,2.8947 -4.8087,1.2156 -8.7724,3.4279 -12.158,6.7866 -3.3615,3.3347 -4.9751,6.022 -4.3421,7.2047 0.12204,0.22808 0.3207,0.28947 0.83626,0.28947 0.56976,0 0.81575,-0.08707 1.5117,-0.64328 1.452,-1.1604 1.8991,-1.4723 3.2807,-2.2193 3.3098,-1.7895 7.1101,-2.6476 10.678,-2.3801 1.3059,0.09788 1.5834,0.16823 1.8977,0.48246 0.3457,0.34572 0.38596,0.4997 0.38596,2.3158 0,3.0696 0.20846,3.0831 3.9883,0.19298 1.521,-1.1629 3.5659,-2.731 4.5673,-3.4737 3.5897,-2.6629 3.9484,-2.9063 4.2135,-3.4737 l 0.03216,-0.28947 c -0.03922,-0.59675 -0.01662,-1.0803 -8.6842,-7.6228 -1.9817,-1.4956 -2.9985,-2.2461 -3.538,-2.2515 z"
     id="path2832" />
  <metadata
     id="metadata4">
    <rdf:RDF>
      <cc:Work>
        <dc:format>image/svg+xml</dc:format>
        <dc:type
           rdf:resource="http://purl.org/dc/dcmitype/StillImage" />
        <cc:license
           rdf:resource="http://creativecommons.org/licenses/publicdomain/" />
        <dc:publisher>
          <cc:Agent
             rdf:about="http://openclipart.org/">
            <dc:title>Openclipart</dc:title>
          </cc:Agent>
        </dc:publisher>
        <dc:title>export icon 2</dc:title>
        <dc:date>2013-07-15T19:10:44</dc:date>
        <dc:description>An export icon</dc:description>
        <dc:source>https://openclipart.org/detail/180891/export-icon-2-by-dibargatin-180891</dc:source>
        <dc:creator>
          <cc:Agent>
            <dc:title>dibargatin</dc:title>
          </cc:Agent>
        </dc:creator>
        <dc:subject>
          <rdf:Bag>
            <rdf:li>android</rdf:li>
            <rdf:li>export</rdf:li>
            <rdf:li>icon</rdf:li>
          </rdf:Bag>
        </dc:subject>
      </cc:Work>
      <cc:License
         rdf:about="http://creativecommons.org/licenses/publicdomain/">
        <cc:permits
           rdf:resource="http://creativecommons.org/ns#Reproduction" />
        <cc:permits
           rdf:resource="http://creativecommons.org/ns#Distribution" />
        <cc:permits
           rdf:resource="http://creativecommons.org/ns#DerivativeWorks" />
      </cc:License>
    </rdf:RDF>
  </metadata>
</svg>
