<?xml version="1.0" encoding="UTF-8" standalone="no"?>
<svg
   xmlns:dc="http://purl.org/dc/elements/1.1/"
   xmlns:cc="http://creativecommons.org/ns#"
   xmlns:rdf="http://www.w3.org/1999/02/22-rdf-syntax-ns#"
   xmlns:svg="http://www.w3.org/2000/svg"
   xmlns="http://www.w3.org/2000/svg"
   xmlns:sodipodi="http://sodipodi.sourceforge.net/DTD/sodipodi-0.dtd"
   xmlns:inkscape="http://www.inkscape.org/namespaces/inkscape"
   id="svg3792"
   viewBox="0 0 48 48"
   version="1.1"
   sodipodi:docname="ImportTable.svg"
   inkscape:version="0.92.1 r15371">
  <defs
     id="defs9" />
  <sodipodi:namedview
     pagecolor="#ffffff"
     bordercolor="#666666"
     borderopacity="1"
     objecttolerance="10"
     gridtolerance="10"
     guidetolerance="10"
     inkscape:pageopacity="0"
     inkscape:pageshadow="2"
     inkscape:window-width="1280"
     inkscape:window-height="737"
     id="namedview7"
     showgrid="false"
     inkscape:zoom="8.6664895"
     inkscape:cx="12.666509"
     inkscape:cy="26.74914"
     inkscape:window-x="-8"
     inkscape:window-y="-8"
     inkscape:window-maximized="1"
     inkscape:current-layer="svg3792" />
  <metadata
     id="metadata4">
    <rdf:RDF>
      <cc:Work>
        <dc:format>image/svg+xml</dc:format>
        <dc:type
           rdf:resource="http://purl.org/dc/dcmitype/StillImage" />
        <cc:license
           rdf:resource="http://creativecommons.org/licenses/publicdomain/" />
        <dc:publisher>
          <cc:Agent
             rdf:about="http://openclipart.org/">
            <dc:title>Openclipart</dc:title>
          </cc:Agent>
        </dc:publisher>
        <dc:title />
        <dc:date>2013-07-15T19:10:44</dc:date>
        <dc:description>An export icon</dc:description>
        <dc:source>https://openclipart.org/detail/180891/export-icon-2-by-dibargatin-180891</dc:source>
        <dc:creator>
          <cc:Agent>
            <dc:title>dibargatin</dc:title>
          </cc:Agent>
        </dc:creator>
        <dc:subject>
          <rdf:Bag>
            <rdf:li>android</rdf:li>
            <rdf:li>export</rdf:li>
            <rdf:li>icon</rdf:li>
          </rdf:Bag>
        </dc:subject>
      </cc:Work>
      <cc:License
         rdf:about="http://creativecommons.org/licenses/publicdomain/">
        <cc:permits
           rdf:resource="http://creativecommons.org/ns#Reproduction" />
        <cc:permits
           rdf:resource="http://creativecommons.org/ns#Distribution" />
        <cc:permits
           rdf:resource="http://creativecommons.org/ns#DerivativeWorks" />
      </cc:License>
    </rdf:RDF>
  </metadata>
  <path
     style="opacity:1;vector-effect:none;fill:#000000;fill-opacity:0.98039216;fill-rule:evenodd;stroke:none;stroke-width:0.93631816;stroke-linecap:butt;stroke-linejoin:miter;stroke-miterlimit:4;stroke-dasharray:none;stroke-dashoffset:0;stroke-opacity:1;marker:none"
     d="M 7.5058594 3.1230469 C 6.2388014 3.1230469 5.2207031 4.1508047 5.2207031 5.4277344 L 5.2207031 42.572266 C 5.2207031 43.849196 6.2388014 44.876953 7.5058594 44.876953 L 40.492188 44.876953 C 41.759245 44.876953 42.779297 43.849196 42.779297 42.572266 L 42.779297 20.878906 C 42.203368 20.938896 41.662168 20.992719 41.066406 21.0625 L 41.066406 26.796875 C 41.066406 27.014988 40.888036 27.191406 40.669922 27.191406 L 31.060547 27.191406 C 30.842434 27.191406 30.666016 27.014988 30.666016 26.796875 L 30.666016 24.273438 C 30.599345 24.325785 30.527658 24.373633 30.462891 24.427734 C 29.628788 25.124443 29.262031 25.478123 29.066406 25.802734 L 29.066406 26.796875 C 29.066406 26.917699 29.007246 27.021416 28.921875 27.09375 C 29.057256 27.466214 29.372562 27.987999 30.089844 29.078125 C 30.314766 29.419961 30.496366 29.709317 30.666016 29.986328 L 30.666016 28.875 C 30.666016 28.656887 30.842434 28.482422 31.060547 28.482422 L 40.669922 28.482422 C 40.888036 28.482422 41.066405 28.656887 41.066406 28.875 L 41.066406 34.738281 C 41.066406 34.956395 40.888036 35.130859 40.669922 35.130859 L 31.060547 35.130859 C 30.842434 35.130859 30.666016 34.956395 30.666016 34.738281 L 30.666016 32.179688 C 30.307761 32.269247 29.754744 32.297351 29.066406 32.296875 L 29.066406 34.738281 C 29.066406 34.956395 28.888036 35.130859 28.669922 35.130859 L 19.0625 35.130859 C 18.844387 35.130859 18.666016 34.956395 18.666016 34.738281 L 18.666016 31.816406 C 18.027771 31.791722 17.570796 31.773827 17.066406 31.753906 L 17.066406 34.738281 C 17.066406 34.956395 16.888036 35.130859 16.669922 35.130859 L 7.0625 35.130859 C 6.8443871 35.130859 6.6660156 34.956395 6.6660156 34.738281 L 6.6660156 28.875 C 6.6660156 28.656887 6.844386 28.482422 7.0625 28.482422 L 12.072266 28.482422 C 12.145548 28.131827 12.261492 27.667427 12.380859 27.191406 L 7.0625 27.191406 C 6.8443871 27.191406 6.6660156 27.014988 6.6660156 26.796875 L 6.6660156 20.935547 C 6.6660156 20.717434 6.844386 20.541016 7.0625 20.541016 L 14.304688 20.541016 C 14.424092 20.156605 14.582286 19.665266 14.712891 19.25 L 7.0625 19.25 C 6.8443871 19.25 6.6660156 19.073582 6.6660156 18.855469 L 6.6660156 12.994141 C 6.6660156 12.776028 6.844386 12.601562 7.0625 12.601562 L 16.669922 12.601562 C 16.76113 12.601562 16.841428 12.638004 16.908203 12.689453 C 17.168437 12.074564 17.402796 11.645303 17.636719 11.474609 C 18.079555 11.151598 18.532279 11.599729 19.230469 12.601562 L 28.669922 12.601562 C 28.888036 12.601562 29.066406 12.776028 29.066406 12.994141 L 29.066406 13.417969 C 29.599773 13.304211 30.133256 13.197896 30.666016 13.113281 L 30.666016 12.994141 C 30.666016 12.776028 30.842434 12.601562 31.060547 12.601562 L 40.669922 12.601562 C 40.888036 12.601562 41.066405 12.776028 41.066406 12.994141 L 41.066406 13.28125 C 41.08404 13.284572 41.101503 13.28571 41.119141 13.289062 C 41.701277 13.399704 42.243841 13.520572 42.779297 13.642578 L 42.779297 5.4277344 C 42.779297 4.1508047 41.759245 3.1230469 40.492188 3.1230469 L 7.5058594 3.1230469 z M 7.1503906 4.6601562 L 16.759766 4.6601562 C 16.97788 4.6601562 17.152344 4.8365742 17.152344 5.0546875 L 17.152344 10.916016 C 17.152344 11.134129 16.97788 11.310547 16.759766 11.310547 L 7.1503906 11.310547 C 6.9322776 11.310547 6.7558594 11.134129 6.7558594 10.916016 L 6.7558594 5.0546875 C 6.7558594 4.8365742 6.9322776 4.6601563 7.1503906 4.6601562 z M 19.150391 4.6601562 L 28.759766 4.6601562 C 28.977879 4.6601562 29.152344 4.8365742 29.152344 5.0546875 L 29.152344 10.916016 C 29.152344 11.134129 28.977879 11.310547 28.759766 11.310547 L 19.150391 11.310547 C 18.932278 11.310547 18.757812 11.134129 18.757812 10.916016 L 18.757812 5.0546875 C 18.757812 4.8365742 18.932278 4.6601563 19.150391 4.6601562 z M 31.150391 4.6601562 L 40.759766 4.6601562 C 40.977879 4.6601562 41.152344 4.8365742 41.152344 5.0546875 L 41.152344 10.916016 C 41.152344 11.134129 40.977879 11.310547 40.759766 11.310547 L 31.150391 11.310547 C 30.932278 11.310547 30.757813 11.134129 30.757812 10.916016 L 30.757812 5.0546875 C 30.757812 4.8365742 30.932278 4.6601563 31.150391 4.6601562 z M 7.0625 36.421875 L 16.669922 36.421875 C 16.888036 36.421875 17.066406 36.598292 17.066406 36.816406 L 17.066406 42.677734 C 17.066406 42.895847 16.888036 43.072266 16.669922 43.072266 L 7.0625 43.072266 C 6.8443871 43.072266 6.6660156 42.895847 6.6660156 42.677734 L 6.6660156 36.816406 C 6.6660156 36.598292 6.844386 36.421875 7.0625 36.421875 z M 19.0625 36.421875 L 28.669922 36.421875 C 28.888036 36.421875 29.066406 36.598292 29.066406 36.816406 L 29.066406 42.677734 C 29.066406 42.895847 28.888036 43.072266 28.669922 43.072266 L 19.0625 43.072266 C 18.844387 43.072266 18.666016 42.895847 18.666016 42.677734 L 18.666016 36.816406 C 18.666016 36.598292 18.844387 36.421875 19.0625 36.421875 z M 31.060547 36.421875 L 40.669922 36.421875 C 40.888036 36.421875 41.066406 36.598292 41.066406 36.816406 L 41.066406 42.677734 C 41.066406 42.895847 40.888036 43.072266 40.669922 43.072266 L 31.060547 43.072266 C 30.842434 43.072266 30.666016 42.895847 30.666016 42.677734 L 30.666016 36.816406 C 30.666016 36.598292 30.842434 36.421875 31.060547 36.421875 z "
     id="rect4658" />
  <path
     id="path4629"
     d="m 18.09318,13.758023 c 0.442028,-0.309457 0.879657,0.259243 1.714176,1.476547 1.316276,1.920035 1.370451,1.939637 3.361077,1.20543 4.653524,-1.716388 9.173668,-2.132913 13.865213,-1.277016 4.658097,0.849728 7.508476,2.153808 7.655121,3.487211 0.02831,0.257125 -0.100834,0.420088 -0.526065,0.711604 -0.469934,0.322162 -0.722057,0.389438 -1.610572,0.324195 -1.85373,-0.136079 -2.398854,-0.140526 -3.960768,0.02456 -3.741745,0.395509 -7.361406,1.836576 -10.152931,4.074623 -1.021752,0.819133 -1.210854,1.034065 -1.29241,1.470956 -0.08965,0.480618 -0.03579,0.630384 0.991097,2.128291 1.735659,2.531784 1.571356,2.660789 -3.180404,2.414292 C 23.044659,29.699586 20.471382,29.56249 19.225486,29.516143 14.75903,29.349543 14.32555,29.35161 13.78607,29.033519 L 13.595868,28.81295 c -0.305075,-0.514371 -0.597131,-0.900421 2.852471,-11.197581 0.788828,-2.354082 1.203118,-3.548023 1.645041,-3.857529 z"
     style="fill:#4cae70;fill-opacity:0.9372549"
     inkscape:connector-curvature="0" />
</svg>
