<?xml version="1.0" encoding="UTF-8" standalone="no"?>
<svg
   xmlns:dc="http://purl.org/dc/elements/1.1/"
   xmlns:cc="http://creativecommons.org/ns#"
   xmlns:rdf="http://www.w3.org/1999/02/22-rdf-syntax-ns#"
   xmlns:svg="http://www.w3.org/2000/svg"
   xmlns="http://www.w3.org/2000/svg"
   xmlns:sodipodi="http://sodipodi.sourceforge.net/DTD/sodipodi-0.dtd"
   xmlns:inkscape="http://www.inkscape.org/namespaces/inkscape"
   id="svg3792"
   viewBox="0 0 48 48"
   version="1.1"
   sodipodi:docname="NewTable.svg"
   inkscape:version="0.92.1 r15371">
  <defs
     id="defs9" />
  <sodipodi:namedview
     pagecolor="#ffffff"
     bordercolor="#666666"
     borderopacity="1"
     objecttolerance="10"
     gridtolerance="10"
     guidetolerance="10"
     inkscape:pageopacity="0"
     inkscape:pageshadow="2"
     inkscape:window-width="1280"
     inkscape:window-height="737"
     id="namedview7"
     showgrid="false"
     inkscape:zoom="11.208333"
     inkscape:cx="24"
     inkscape:cy="24"
     inkscape:window-x="-8"
     inkscape:window-y="-8"
     inkscape:window-maximized="1"
     inkscape:current-layer="svg3792" />
  <metadata
     id="metadata4">
    <rdf:RDF>
      <cc:Work>
        <dc:format>image/svg+xml</dc:format>
        <dc:type
           rdf:resource="http://purl.org/dc/dcmitype/StillImage" />
        <cc:license
           rdf:resource="http://creativecommons.org/licenses/publicdomain/" />
        <dc:publisher>
          <cc:Agent
             rdf:about="http://openclipart.org/">
            <dc:title>Openclipart</dc:title>
          </cc:Agent>
        </dc:publisher>
        <dc:title />
        <dc:date>2013-07-15T19:10:44</dc:date>
        <dc:description>An export icon</dc:description>
        <dc:source>https://openclipart.org/detail/180891/export-icon-2-by-dibargatin-180891</dc:source>
        <dc:creator>
          <cc:Agent>
            <dc:title>dibargatin</dc:title>
          </cc:Agent>
        </dc:creator>
        <dc:subject>
          <rdf:Bag>
            <rdf:li>android</rdf:li>
            <rdf:li>export</rdf:li>
            <rdf:li>icon</rdf:li>
          </rdf:Bag>
        </dc:subject>
      </cc:Work>
      <cc:License
         rdf:about="http://creativecommons.org/licenses/publicdomain/">
        <cc:permits
           rdf:resource="http://creativecommons.org/ns#Reproduction" />
        <cc:permits
           rdf:resource="http://creativecommons.org/ns#Distribution" />
        <cc:permits
           rdf:resource="http://creativecommons.org/ns#DerivativeWorks" />
      </cc:License>
    </rdf:RDF>
  </metadata>
  <path
     style="opacity:1;vector-effect:none;fill:#000000;fill-opacity:0.98039216;fill-rule:evenodd;stroke:none;stroke-width:0.93631816;stroke-linecap:butt;stroke-linejoin:miter;stroke-miterlimit:4;stroke-dasharray:none;stroke-dashoffset:0;stroke-opacity:1;marker:none"
     d="M 7.5058594 3.1230469 C 6.2388014 3.1230469 5.21875 4.1508044 5.21875 5.4277344 L 5.21875 42.572266 C 5.21875 43.849195 6.2388014 44.876953 7.5058594 44.876953 L 25.078125 44.876953 C 25.162408 44.283709 25.291172 43.676358 25.449219 43.072266 L 19.060547 43.072266 C 18.842433 43.072266 18.667969 42.895847 18.667969 42.677734 L 18.667969 36.816406 C 18.667969 36.598293 18.842433 36.423828 19.060547 36.423828 L 23.958984 36.423828 C 23.264966 36.039403 22.543552 35.612146 21.851562 35.130859 L 19.060547 35.130859 C 18.842433 35.130859 18.667969 34.956394 18.667969 34.738281 L 18.667969 31.515625 C 18.565413 31.1122 18.552868 30.705474 18.667969 30.298828 L 18.667969 28.876953 C 18.667969 28.65884 18.842433 28.482422 19.060547 28.482422 L 28.669922 28.482422 C 28.888035 28.482422 29.064453 28.65884 29.064453 28.876953 L 29.064453 29.376953 C 29.387753 29.273831 29.696742 29.145466 29.966797 28.945312 C 30.513727 28.539951 30.888761 27.919045 31.169922 27.191406 L 31.060547 27.191406 C 30.842433 27.191406 30.667969 27.014989 30.667969 26.796875 L 30.667969 20.935547 C 30.667969 20.717434 30.842433 20.541016 31.060547 20.541016 L 32.816406 20.541016 C 33.187863 19.799214 33.720578 19.312825 34.558594 19.279297 C 35.485391 19.242217 36.103738 19.746209 36.566406 20.541016 L 40.669922 20.541016 C 40.888035 20.541016 41.064453 20.717434 41.064453 20.935547 L 41.064453 26.796875 C 41.064453 27.014989 40.888035 27.191406 40.669922 27.191406 L 38.726562 27.191406 C 38.938492 27.676629 39.187844 28.112787 39.484375 28.482422 L 40.669922 28.482422 C 40.888035 28.482422 41.064453 28.65884 41.064453 28.876953 L 41.064453 29.566406 C 41.588926 29.735398 42.167099 29.807138 42.78125 29.810547 L 42.78125 5.4277344 C 42.78125 4.1508044 41.761198 3.1230469 40.494141 3.1230469 L 7.5058594 3.1230469 z M 7.1503906 4.6601562 L 16.759766 4.6601562 C 16.977879 4.6601562 17.154297 4.8365745 17.154297 5.0546875 L 17.154297 10.916016 C 17.154297 11.134129 16.977879 11.310547 16.759766 11.310547 L 7.1503906 11.310547 C 6.9322766 11.310547 6.7558594 11.134129 6.7558594 10.916016 L 6.7558594 5.0546875 C 6.7558594 4.8365745 6.9322766 4.6601562 7.1503906 4.6601562 z M 19.150391 4.6601562 L 28.759766 4.6601562 C 28.97788 4.6601562 29.154297 4.8365745 29.154297 5.0546875 L 29.154297 10.916016 C 29.154297 11.134129 28.97788 11.310547 28.759766 11.310547 L 19.150391 11.310547 C 18.932278 11.310547 18.755859 11.134129 18.755859 10.916016 L 18.755859 5.0546875 C 18.755859 4.8365745 18.932278 4.6601562 19.150391 4.6601562 z M 31.150391 4.6601562 L 40.759766 4.6601562 C 40.977879 4.6601562 41.154297 4.8365745 41.154297 5.0546875 L 41.154297 10.916016 C 41.154297 11.134129 40.97788 11.310547 40.759766 11.310547 L 31.150391 11.310547 C 30.932277 11.310547 30.755859 11.134129 30.755859 10.916016 L 30.755859 5.0546875 C 30.755859 4.8365745 30.932276 4.6601562 31.150391 4.6601562 z M 7.0605469 12.601562 L 16.669922 12.601562 C 16.888035 12.601562 17.064453 12.776028 17.064453 12.994141 L 17.064453 18.857422 C 17.064453 19.075535 16.888035 19.25 16.669922 19.25 L 7.0605469 19.25 C 6.8424329 19.25 6.6679688 19.075535 6.6679688 18.857422 L 6.6679688 12.994141 C 6.6679688 12.776028 6.8424329 12.601562 7.0605469 12.601562 z M 19.060547 12.601562 L 28.669922 12.601562 C 28.888035 12.601562 29.064453 12.776028 29.064453 12.994141 L 29.064453 18.857422 C 29.064453 19.075535 28.888035 19.25 28.669922 19.25 L 19.060547 19.25 C 18.842433 19.25 18.667969 19.075535 18.667969 18.857422 L 18.667969 12.994141 C 18.667969 12.776028 18.842433 12.601562 19.060547 12.601562 z M 31.060547 12.601562 L 40.669922 12.601562 C 40.888035 12.601562 41.064453 12.776028 41.064453 12.994141 L 41.064453 18.857422 C 41.064453 19.075535 40.888035 19.25 40.669922 19.25 L 31.060547 19.25 C 30.842433 19.25 30.667969 19.075535 30.667969 18.857422 L 30.667969 12.994141 C 30.667969 12.776028 30.842433 12.601562 31.060547 12.601562 z M 7.0605469 20.541016 L 16.669922 20.541016 C 16.888035 20.541016 17.064453 20.717434 17.064453 20.935547 L 17.064453 26.796875 C 17.064453 27.014989 16.888035 27.191406 16.669922 27.191406 L 7.0605469 27.191406 C 6.8424329 27.191406 6.6679688 27.014989 6.6679688 26.796875 L 6.6679688 20.935547 C 6.6679688 20.717434 6.8424329 20.541016 7.0605469 20.541016 z M 19.060547 20.541016 L 28.669922 20.541016 C 28.888035 20.541016 29.064453 20.717434 29.064453 20.935547 L 29.064453 26.796875 C 29.064453 27.014989 28.888035 27.191406 28.669922 27.191406 L 19.060547 27.191406 C 18.842433 27.191406 18.667969 27.014989 18.667969 26.796875 L 18.667969 20.935547 C 18.667969 20.717434 18.842433 20.541016 19.060547 20.541016 z M 7.0605469 28.482422 L 16.669922 28.482422 C 16.888035 28.482422 17.064453 28.65884 17.064453 28.876953 L 17.064453 34.738281 C 17.064453 34.956394 16.888035 35.130859 16.669922 35.130859 L 7.0605469 35.130859 C 6.8424329 35.130859 6.6679688 34.956394 6.6679688 34.738281 L 6.6679688 28.876953 C 6.6679688 28.65884 6.8424329 28.482422 7.0605469 28.482422 z M 7.0605469 36.423828 L 16.669922 36.423828 C 16.888035 36.423828 17.064453 36.598293 17.064453 36.816406 L 17.064453 42.677734 C 17.064453 42.895847 16.888035 43.072266 16.669922 43.072266 L 7.0605469 43.072266 C 6.8424329 43.072266 6.6679688 42.895847 6.6679688 42.677734 L 6.6679688 36.816406 C 6.6679688 36.598293 6.8424329 36.423828 7.0605469 36.423828 z M 35.808594 43.861328 C 34.932461 43.857077 34.073896 44.276851 33.232422 44.876953 L 38.382812 44.876953 C 37.539852 44.282119 36.679812 43.865558 35.808594 43.861328 z "
     id="rect4658" />
  <path
     sodipodi:nodetypes="ssssssscsss"
     inkscape:connector-curvature="0"
     id="path4655"
     d="m 34.154624,21.760955 c 3.003902,-0.0033 1.934517,6.254734 4.374197,8.040948 2.620622,1.918692 8.712584,-1.416526 9.520403,1.77315 0.732049,2.89049 -5.803884,2.882341 -6.776738,5.700541 -0.96175,2.786034 4.064462,6.883349 1.760827,8.670734 -2.561714,1.987627 -5.350842,-4.383644 -8.56245,-4.517821 -3.040106,-0.127004 -6.060809,5.529491 -8.432153,3.58566 -2.193392,-1.797962 1.484854,-8.492707 1.484854,-8.492707 0,0 -7.9944,-3.421412 -6.972185,-6.454676 1.031868,-3.061907 6.809669,1.01554 9.48014,-0.730961 2.382007,-1.557847 1.296718,-7.571748 4.123105,-7.574868 z"
     inkscape:transform-center-y="0.30435268"
     inkscape:transform-center-x="-2.3083031"
     style="opacity:1;vector-effect:none;fill:#4cae70;fill-opacity:0.9372549;stroke:none;stroke-width:0.53915775;stroke-linecap:butt;stroke-linejoin:miter;stroke-miterlimit:4;stroke-dasharray:none;stroke-dashoffset:0;stroke-opacity:1;marker:none" />
</svg>
